<mxfile host="drawio-plugin" modified="2023-08-10T05:33:21.437Z" agent="5.0 (Windows NT 6.2; Win64; x64) AppleWebKit/537.36 (KHTML, like Gecko) Chrome/104.0.5112.102 Safari/537.36" etag="cc7hBQGki6ifP_G6cth0" version="20.5.3" type="embed" pages="3"><diagram id="inMPcjYvnmvmxzhDKLPN" name="整体架构"><mxGraphModel dx="918" dy="622" grid="1" gridSize="10" guides="1" tooltips="1" connect="1" arrows="1" fold="1" page="1" pageScale="1" pageWidth="827" pageHeight="1169" math="0" shadow="0"><root><mxCell id="0"/><mxCell id="1" parent="0"/><mxCell id="9" value="" style="edgeStyle=orthogonalEdgeStyle;rounded=0;orthogonalLoop=1;jettySize=auto;html=1;" parent="1" source="2" target="5" edge="1"><mxGeometry relative="1" as="geometry"/></mxCell><mxCell id="2" value="P" style="ellipse;whiteSpace=wrap;html=1;aspect=fixed;fillColor=#0050ef;fontColor=#ffffff;strokeColor=#001DBC;" parent="1" vertex="1"><mxGeometry x="180" y="370" width="40" height="40" as="geometry"/></mxCell><mxCell id="11" value="" style="edgeStyle=orthogonalEdgeStyle;rounded=0;orthogonalLoop=1;jettySize=auto;html=1;" parent="1" source="3" target="7" edge="1"><mxGeometry relative="1" as="geometry"/></mxCell><mxCell id="12" value="" style="rounded=0;orthogonalLoop=1;jettySize=auto;html=1;entryX=0;entryY=0.5;entryDx=0;entryDy=0;" parent="1" source="3" target="5" edge="1"><mxGeometry relative="1" as="geometry"/></mxCell><mxCell id="3" value="P" style="ellipse;whiteSpace=wrap;html=1;aspect=fixed;fillColor=#0050ef;fontColor=#ffffff;strokeColor=#001DBC;" parent="1" vertex="1"><mxGeometry x="180" y="450" width="40" height="40" as="geometry"/></mxCell><mxCell id="4" value="" style="rounded=0;whiteSpace=wrap;html=1;shadow=0;glass=0;gradientColor=none;fillColor=none;" parent="1" vertex="1"><mxGeometry x="279" y="360" width="241" height="140" as="geometry"/></mxCell><mxCell id="10" value="" style="edgeStyle=orthogonalEdgeStyle;rounded=0;orthogonalLoop=1;jettySize=auto;html=1;" parent="1" source="5" target="8" edge="1"><mxGeometry relative="1" as="geometry"/></mxCell><mxCell id="5" value="X" style="rounded=0;whiteSpace=wrap;html=1;fillColor=#ffcc99;strokeColor=#36393d;" parent="1" vertex="1"><mxGeometry x="290" y="370" width="50" height="40" as="geometry"/></mxCell><mxCell id="14" value="" style="edgeStyle=orthogonalEdgeStyle;rounded=0;orthogonalLoop=1;jettySize=auto;html=1;" parent="1" source="7" target="13" edge="1"><mxGeometry relative="1" as="geometry"/></mxCell><mxCell id="15" value="" style="rounded=0;orthogonalLoop=1;jettySize=auto;html=1;entryX=0;entryY=1;entryDx=0;entryDy=0;" parent="1" source="7" target="8" edge="1"><mxGeometry relative="1" as="geometry"/></mxCell><mxCell id="7" value="X" style="rounded=0;whiteSpace=wrap;html=1;fillColor=#ffcc99;strokeColor=#36393d;" parent="1" vertex="1"><mxGeometry x="290" y="450" width="50" height="40" as="geometry"/></mxCell><mxCell id="17" value="" style="edgeStyle=orthogonalEdgeStyle;rounded=0;orthogonalLoop=1;jettySize=auto;html=1;" parent="1" source="8" target="16" edge="1"><mxGeometry relative="1" as="geometry"/></mxCell><mxCell id="8" value="" style="shape=process;whiteSpace=wrap;html=1;backgroundOutline=1;fillColor=#008a00;fontColor=#ffffff;strokeColor=#005700;" parent="1" vertex="1"><mxGeometry x="380" y="380" width="120" height="20" as="geometry"/></mxCell><mxCell id="22" value="" style="edgeStyle=orthogonalEdgeStyle;rounded=0;orthogonalLoop=1;jettySize=auto;html=1;" parent="1" source="13" target="20" edge="1"><mxGeometry relative="1" as="geometry"/></mxCell><mxCell id="13" value="" style="shape=process;whiteSpace=wrap;html=1;backgroundOutline=1;fillColor=#008a00;fontColor=#ffffff;strokeColor=#005700;" parent="1" vertex="1"><mxGeometry x="380" y="460" width="120" height="20" as="geometry"/></mxCell><mxCell id="16" value="C" style="ellipse;whiteSpace=wrap;html=1;aspect=fixed;fillColor=#0050ef;fontColor=#ffffff;strokeColor=#001DBC;" parent="1" vertex="1"><mxGeometry x="560" y="375" width="30" height="30" as="geometry"/></mxCell><mxCell id="18" value="C" style="ellipse;whiteSpace=wrap;html=1;aspect=fixed;fillColor=#0050ef;fontColor=#ffffff;strokeColor=#001DBC;" parent="1" vertex="1"><mxGeometry x="560" y="415" width="30" height="30" as="geometry"/></mxCell><mxCell id="19" value="" style="rounded=0;orthogonalLoop=1;jettySize=auto;html=1;entryX=0;entryY=0.5;entryDx=0;entryDy=0;exitX=1;exitY=0.75;exitDx=0;exitDy=0;" parent="1" source="8" target="18" edge="1"><mxGeometry relative="1" as="geometry"><mxPoint x="510" y="400" as="sourcePoint"/><mxPoint x="570" y="400" as="targetPoint"/></mxGeometry></mxCell><mxCell id="20" value="C" style="ellipse;whiteSpace=wrap;html=1;aspect=fixed;fillColor=#0050ef;fontColor=#ffffff;strokeColor=#001DBC;" parent="1" vertex="1"><mxGeometry x="560" y="455" width="30" height="30" as="geometry"/></mxCell><mxCell id="21" value="" style="rounded=0;orthogonalLoop=1;jettySize=auto;html=1;entryX=0;entryY=0.5;entryDx=0;entryDy=0;exitX=1;exitY=0;exitDx=0;exitDy=0;" parent="1" source="13" target="18" edge="1"><mxGeometry relative="1" as="geometry"><mxPoint x="510" y="405" as="sourcePoint"/><mxPoint x="570" y="450" as="targetPoint"/></mxGeometry></mxCell></root></mxGraphModel></diagram><diagram id="6odIZBYwKH53_Jhd5WDS" name="AMQP消息模型"><mxGraphModel dx="918" dy="622" grid="1" gridSize="10" guides="1" tooltips="1" connect="1" arrows="1" fold="1" page="1" pageScale="1" pageWidth="827" pageHeight="1169" math="0" shadow="0"><root><mxCell id="0"/><mxCell id="1" parent="0"/><mxCell id="v7vNlYjY0YFRgV672coL-13" value="" style="edgeStyle=orthogonalEdgeStyle;rounded=0;orthogonalLoop=1;jettySize=auto;html=1;entryX=0;entryY=0.5;entryDx=0;entryDy=0;" parent="1" source="v7vNlYjY0YFRgV672coL-1" target="v7vNlYjY0YFRgV672coL-8" edge="1"><mxGeometry relative="1" as="geometry"/></mxCell><mxCell id="v7vNlYjY0YFRgV672coL-1" value="Publisher&lt;br&gt;application" style="rounded=0;whiteSpace=wrap;html=1;dashed=1;" parent="1" vertex="1"><mxGeometry x="100" y="395" width="120" height="60" as="geometry"/></mxCell><mxCell id="v7vNlYjY0YFRgV672coL-2" value="Consumer&lt;br&gt;application" style="rounded=0;whiteSpace=wrap;html=1;dashed=1;" parent="1" vertex="1"><mxGeometry x="100" y="503" width="120" height="60" as="geometry"/></mxCell><mxCell id="v7vNlYjY0YFRgV672coL-3" value="" style="whiteSpace=wrap;html=1;aspect=fixed;dashed=1;fillColor=none;" parent="1" vertex="1"><mxGeometry x="330" y="340" width="280" height="280" as="geometry"/></mxCell><mxCell id="v7vNlYjY0YFRgV672coL-4" value="Server" style="text;html=1;align=center;verticalAlign=middle;resizable=0;points=[];autosize=1;strokeColor=none;fillColor=none;" parent="1" vertex="1"><mxGeometry x="445" y="310" width="60" height="30" as="geometry"/></mxCell><mxCell id="v7vNlYjY0YFRgV672coL-5" value="" style="whiteSpace=wrap;html=1;aspect=fixed;dashed=1;fillColor=none;" parent="1" vertex="1"><mxGeometry x="360" y="370" width="220" height="220" as="geometry"/></mxCell><mxCell id="v7vNlYjY0YFRgV672coL-6" value="Virtual host" style="text;html=1;align=center;verticalAlign=middle;resizable=0;points=[];autosize=1;strokeColor=none;fillColor=none;" parent="1" vertex="1"><mxGeometry x="430" y="340" width="80" height="30" as="geometry"/></mxCell><mxCell id="v7vNlYjY0YFRgV672coL-10" value="" style="edgeStyle=orthogonalEdgeStyle;rounded=0;orthogonalLoop=1;jettySize=auto;html=1;" parent="1" source="v7vNlYjY0YFRgV672coL-8" target="v7vNlYjY0YFRgV672coL-9" edge="1"><mxGeometry relative="1" as="geometry"/></mxCell><mxCell id="v7vNlYjY0YFRgV672coL-8" value="Exchange" style="rounded=0;whiteSpace=wrap;html=1;" parent="1" vertex="1"><mxGeometry x="415" y="400" width="120" height="50" as="geometry"/></mxCell><mxCell id="v7vNlYjY0YFRgV672coL-12" value="" style="edgeStyle=orthogonalEdgeStyle;rounded=0;orthogonalLoop=1;jettySize=auto;html=1;" parent="1" source="v7vNlYjY0YFRgV672coL-9" target="v7vNlYjY0YFRgV672coL-2" edge="1"><mxGeometry relative="1" as="geometry"><mxPoint x="405" y="530" as="targetPoint"/><Array as="points"/></mxGeometry></mxCell><mxCell id="v7vNlYjY0YFRgV672coL-9" value="Message Queue" style="shape=process;whiteSpace=wrap;html=1;backgroundOutline=1;rotation=90;" parent="1" vertex="1"><mxGeometry x="450" y="473" width="50" height="120" as="geometry"/></mxCell></root></mxGraphModel></diagram><diagram id="riOUHpV4mUbW-jx4QikQ" name="消息流转"><mxGraphModel dx="918" dy="622" grid="1" gridSize="10" guides="1" tooltips="1" connect="1" arrows="1" fold="1" page="1" pageScale="1" pageWidth="827" pageHeight="1169" math="0" shadow="0"><root><mxCell id="0"/><mxCell id="1" parent="0"/><mxCell id="x1tdP6MO45ERa6vy5aG5-4" value="" style="edgeStyle=orthogonalEdgeStyle;rounded=0;orthogonalLoop=1;jettySize=auto;html=1;" parent="1" source="x1tdP6MO45ERa6vy5aG5-1" target="x1tdP6MO45ERa6vy5aG5-3" edge="1"><mxGeometry relative="1" as="geometry"/></mxCell><mxCell id="x1tdP6MO45ERa6vy5aG5-1" value="Publisher&lt;br&gt;application" style="rounded=0;whiteSpace=wrap;html=1;dashed=1;" parent="1" vertex="1"><mxGeometry x="90" y="160" width="120" height="60" as="geometry"/></mxCell><mxCell id="x1tdP6MO45ERa6vy5aG5-2" value="Consumer&lt;br&gt;application" style="rounded=0;whiteSpace=wrap;html=1;dashed=1;" parent="1" vertex="1"><mxGeometry x="90" y="583" width="120" height="60" as="geometry"/></mxCell><mxCell id="x1tdP6MO45ERa6vy5aG5-6" value="" style="edgeStyle=orthogonalEdgeStyle;rounded=0;orthogonalLoop=1;jettySize=auto;html=1;" parent="1" source="x1tdP6MO45ERa6vy5aG5-3" target="x1tdP6MO45ERa6vy5aG5-5" edge="1"><mxGeometry relative="1" as="geometry"/></mxCell><mxCell id="x1tdP6MO45ERa6vy5aG5-3" value="Message" style="rounded=0;whiteSpace=wrap;html=1;dashed=1;" parent="1" vertex="1"><mxGeometry x="520" y="160" width="120" height="60" as="geometry"/></mxCell><mxCell id="x1tdP6MO45ERa6vy5aG5-8" value="" style="edgeStyle=orthogonalEdgeStyle;rounded=0;orthogonalLoop=1;jettySize=auto;html=1;" parent="1" source="x1tdP6MO45ERa6vy5aG5-5" target="x1tdP6MO45ERa6vy5aG5-7" edge="1"><mxGeometry relative="1" as="geometry"><Array as="points"><mxPoint x="580" y="390"/><mxPoint x="430" y="390"/></Array></mxGeometry></mxCell><mxCell id="x1tdP6MO45ERa6vy5aG5-10" value="" style="edgeStyle=orthogonalEdgeStyle;rounded=0;orthogonalLoop=1;jettySize=auto;html=1;" parent="1" source="x1tdP6MO45ERa6vy5aG5-5" target="x1tdP6MO45ERa6vy5aG5-9" edge="1"><mxGeometry relative="1" as="geometry"/></mxCell><mxCell id="x1tdP6MO45ERa6vy5aG5-12" value="" style="edgeStyle=orthogonalEdgeStyle;rounded=0;orthogonalLoop=1;jettySize=auto;html=1;" parent="1" source="x1tdP6MO45ERa6vy5aG5-5" target="x1tdP6MO45ERa6vy5aG5-11" edge="1"><mxGeometry relative="1" as="geometry"><Array as="points"><mxPoint x="580" y="390"/><mxPoint x="740" y="390"/></Array></mxGeometry></mxCell><mxCell id="x1tdP6MO45ERa6vy5aG5-5" value="Exchange" style="rounded=0;whiteSpace=wrap;html=1;dashed=1;" parent="1" vertex="1"><mxGeometry x="520" y="300" width="120" height="60" as="geometry"/></mxCell><mxCell id="x1tdP6MO45ERa6vy5aG5-14" value="" style="edgeStyle=orthogonalEdgeStyle;rounded=0;orthogonalLoop=1;jettySize=auto;html=1;" parent="1" source="x1tdP6MO45ERa6vy5aG5-7" target="x1tdP6MO45ERa6vy5aG5-13" edge="1"><mxGeometry relative="1" as="geometry"/></mxCell><mxCell id="x1tdP6MO45ERa6vy5aG5-7" value="Message&lt;br&gt;Queue" style="rounded=0;whiteSpace=wrap;html=1;dashed=1;" parent="1" vertex="1"><mxGeometry x="370" y="443" width="120" height="60" as="geometry"/></mxCell><mxCell id="x1tdP6MO45ERa6vy5aG5-9" value="Message&lt;br&gt;Queue" style="rounded=0;whiteSpace=wrap;html=1;dashed=1;" parent="1" vertex="1"><mxGeometry x="520" y="443" width="120" height="60" as="geometry"/></mxCell><mxCell id="x1tdP6MO45ERa6vy5aG5-11" value="Message&lt;br&gt;Queue" style="rounded=0;whiteSpace=wrap;html=1;dashed=1;" parent="1" vertex="1"><mxGeometry x="680" y="443" width="120" height="60" as="geometry"/></mxCell><mxCell id="x1tdP6MO45ERa6vy5aG5-15" value="" style="edgeStyle=orthogonalEdgeStyle;rounded=0;orthogonalLoop=1;jettySize=auto;html=1;" parent="1" source="x1tdP6MO45ERa6vy5aG5-13" target="x1tdP6MO45ERa6vy5aG5-2" edge="1"><mxGeometry relative="1" as="geometry"/></mxCell><mxCell id="x1tdP6MO45ERa6vy5aG5-13" value="Message" style="rounded=0;whiteSpace=wrap;html=1;dashed=1;" parent="1" vertex="1"><mxGeometry x="370" y="583" width="120" height="60" as="geometry"/></mxCell></root></mxGraphModel></diagram></mxfile>